<svg xmlns="http://www.w3.org/2000/svg" width="500" height="500" fill="none"><path fill="#000" d="m204.141 337.252 37.928-46.64c3.96-4.869 11.415-4.869 15.374 0l37.928 46.64a9.856 9.856 0 0 1 0 12.445l-37.928 46.64c-3.959 4.87-11.414 4.87-15.374 0l-37.928-46.64a9.856 9.856 0 0 1 0-12.445Z" opacity=".62"/><path fill="#000" d="m263.064 223.197 37.927-46.64c3.96-4.869 11.415-4.869 15.376 0l37.927 46.64a9.858 9.858 0 0 1 0 12.446l-37.927 46.639c-3.961 4.87-11.416 4.87-15.376 0l-37.927-46.639a9.858 9.858 0 0 1 0-12.446Zm-117.851 0 37.927-46.64c3.96-4.869 11.415-4.869 15.375 0l37.927 46.64a9.858 9.858 0 0 1 0 12.446l-37.927 46.639c-3.96 4.87-11.415 4.87-15.375 0l-37.927-46.639a9.855 9.855 0 0 1 0-12.446Zm58.928-72.899 37.928-46.646c3.96-4.87 11.415-4.87 15.374 0l37.928 46.64a9.856 9.856 0 0 1 0 12.445l-37.928 46.64c-3.959 4.87-11.414 4.87-15.374 0l-37.928-46.634a9.856 9.856 0 0 1 0-12.445Z"/></svg>