<?xml version="1.0" encoding="UTF-8"?>
<!-- Generator: Adobe Illustrator 21.0.0, SVG Export Plug-In . SVG Version: 6.00 Build 0)  -->
<svg version="1.1" id="图层_1" xmlns="http://www.w3.org/2000/svg" xmlns:xlink="http://www.w3.org/1999/xlink" x="0px" y="0px" viewBox="0 0 3000 3000" style="enable-background:new 0 0 3000 3000;" xml:space="preserve">
<style type="text/css">
	.st0{fill:#262729;}
	.st1{fill:#EB0029;}
</style>
<g>
	<g>
		<rect x="401.1" y="2302.1" class="st0" width="64.5" height="421.8"/>
		<rect x="228.4" y="2123.6" class="st0" width="526.6" height="64.5"/>
		<rect x="517.9" y="2302.1" class="st0" width="64.5" height="421.8"/>
	</g>
	<g>
		<polygon class="st0" points="2367.3,2724.5 2432.5,2724.5 2432.5,2470.4 2367.3,2397.9   "/>
		<polygon class="st0" points="2710.5,2123.6 2710.5,2594.5 2249.3,2082 2249.3,2724.5 2314.5,2724.5 2314.5,2253.2 2775.8,2765.9     2775.8,2123.6   "/>
	</g>
	<g>
		<path class="st0" d="M1827.3,2123.2c-165.7,0-300.5,134.8-300.5,300.5s134.8,300.5,300.5,300.5s300.5-134.8,300.5-300.5    S1993,2123.2,1827.3,2123.2z M1827.3,2659.4c-130,0-235.8-105.7-235.8-235.8s105.7-235.8,235.8-235.8s235.8,105.7,235.8,235.8    S1957.3,2659.4,1827.3,2659.4z"/>
		<path class="st0" d="M1827.3,2380.4c-23.8,0-43.3,19.5-43.3,43.3s19.5,43.3,43.3,43.3s43.3-19.5,43.3-43.3    S1851.3,2380.4,1827.3,2380.4z"/>
	</g>
	<path class="st0" d="M1413.7,2307.8c0-101.6-82.1-184.2-183-184.2H886.9v600.9h64.2v-535.7h279.6c64.7,0,117.4,53.4,117.4,118.9   c0,65.2-52,118.4-116.1,119.1l-228.1-0.1v297.7h64.2v-232.5h150.4l122.8,232.5h74.5l-128.2-241.6   C1362.1,2458.3,1413.7,2386.9,1413.7,2307.8z"/>
</g>
<path class="st1" d="M1929,432.4L776,220.2l606.7,1526.9L2228.2,717L1929,432.4z M1910.4,526l176.4,167.6L1604.3,781L1910.4,526z   M1499.6,763.4L991.1,341.7l831.1,152.9L1499.6,763.4z M1463.4,838.1l-82.9,685.4l-447.1-1125L1463.4,838.1z M1540.1,874.4  l534.2-96.7l-612.7,746.6L1540.1,874.4z"/>
</svg>