<svg width="512" height="512" viewBox="0 0 100 100" fill="none" xmlns="http://www.w3.org/2000/svg" role="img" aria-label="mayhem">
  <rect width="100" height="100" fill="#FFCD9C"/>
  <g transform="translate(0 6) scale(0.88)">
  <path d="M50 12 L81 45 L69 60 L50 88 L31 60 L19 45 Z" fill="#28338B"/>
  <path d="M50 12 L19 45 L31 60 L50 45 Z" fill="#F5E6D0"/>
  <path d="M50 45 L31 60 L50 88 L69 60 Z" fill="#F5E6D0"/>
  <path d="M50 12 L81 45 L69 60 L50 88 L31 60 L19 45 Z" fill="none" stroke="#28338B" stroke-width="3.2" stroke-linejoin="round"/>
  <path d="M50 12 L50 45 M19 45 L31 60 M81 45 L69 60 M31 60 L50 88 L69 60" fill="none" stroke="#28338B" stroke-width="3.2" stroke-linecap="round" stroke-linejoin="round"/>
</g>
</svg>